HIERARCHY
ROOT Hips
{
	OFFSET 57.148300 -5.227964 83.686699
	CHANNELS 6 Xposition Yposition Zposition Xrotation Yrotation Zrotation
	JOINT spine
	{
		OFFSET 0.000000 -0.342408 5.954384
		CHANNELS 3 Xrotation Yrotation Zrotation
		JOINT spine1
		{
			OFFSET 0.000000 -0.000001 8.856018
			CHANNELS 3 Xrotation Yrotation Zrotation
			JOINT spine2
			{
				OFFSET 0.000000 -0.000001 8.485672
				CHANNELS 3 Xrotation Yrotation Zrotation
				JOINT Neck
				{
					OFFSET 0.000000 -1.038703 21.786301
					CHANNELS 3 Xrotation Yrotation Zrotation
					JOINT Head
					{
						OFFSET 0.000000 -0.000001 6.582199
						CHANNELS 3 Xrotation Yrotation Zrotation
						End Site
						{
							OFFSET 0.000000 5.254357 15.932602
						}
					}
				}
				JOINT RightShoulder
				{
					OFFSET -3.573071 0.497524 9.163864
					CHANNELS 3 Xrotation Yrotation Zrotation
					JOINT RightArm
					{
						OFFSET 0.000000 -0.000002 12.019196
						CHANNELS 3 Xrotation Yrotation Zrotation
						JOINT RightArmRoll
						{
							OFFSET 0.000000 -0.000001 6.067535
							CHANNELS 3 Xrotation Yrotation Zrotation
							JOINT RightForeArm
							{
								OFFSET 0.000000 -0.000003 17.672607
								CHANNELS 3 Xrotation Yrotation Zrotation
								JOINT RightForeArmRoll
								{
									OFFSET 0.000000 -0.000001 6.808716
									CHANNELS 3 Xrotation Yrotation Zrotation
									JOINT RightHand
									{
										OFFSET 0.000000 -0.000002 13.663605
										CHANNELS 3 Xrotation Yrotation Zrotation
										End Site
										{
											OFFSET 0.000000 0.000000 0.100006
										}
									}
								}
							}
						}
					}
				}
				JOINT LeftShoulder
				{
					OFFSET 3.573071 0.497524 9.163864
					CHANNELS 3 Xrotation Yrotation Zrotation
					JOINT LeftArm
					{
						OFFSET 0.000000 -0.000002 12.019196
						CHANNELS 3 Xrotation Yrotation Zrotation
						JOINT LeftArmRoll
						{
							OFFSET 0.000000 -0.000001 6.067551
							CHANNELS 3 Xrotation Yrotation Zrotation
							JOINT LeftForeArm
							{
								OFFSET 0.000000 -0.000003 17.672592
								CHANNELS 3 Xrotation Yrotation Zrotation
								JOINT LeftForeArmRoll
								{
									OFFSET 0.000000 -0.000001 6.808716
									CHANNELS 3 Xrotation Yrotation Zrotation
									JOINT LeftHand
									{
										OFFSET 0.000000 -0.000002 13.663605
										CHANNELS 3 Xrotation Yrotation Zrotation
										End Site
										{
											OFFSET 0.000000 0.000000 0.100006
										}
									}
								}
							}
						}
					}
				}
			}
		}
	}
	JOINT RightUpLeg
	{
		OFFSET -5.277740 0.811859 -0.967796
		CHANNELS 3 Xrotation Yrotation Zrotation
		JOINT RightUpLegRoll
		{
			OFFSET 0.000000 -0.000003 16.021400
			CHANNELS 3 Xrotation Yrotation Zrotation
			JOINT RightLeg
			{
				OFFSET 0.000000 0.000003 -19.840096
				CHANNELS 3 Xrotation Yrotation Zrotation
				JOINT RightLegRoll
				{
					OFFSET 0.000000 -0.000003 19.904999
					CHANNELS 3 Xrotation Yrotation Zrotation
					JOINT RightFoot
					{
						OFFSET 0.000000 -0.000002 16.567497
						CHANNELS 3 Xrotation Yrotation Zrotation
						JOINT RightToeBase
						{
							OFFSET 0.000000 -0.000002 13.849602
							CHANNELS 3 Xrotation Yrotation Zrotation
							End Site
							{
								OFFSET 0.005871 0.773116 6.707275
							}
						}
					}
				}
			}
		}
	}
	JOINT LeftUpLeg
	{
		OFFSET 5.277740 0.811859 -0.967796
		CHANNELS 3 Xrotation Yrotation Zrotation
		JOINT LeftUpLegRoll
		{
			OFFSET 0.000000 -0.000003 16.021500
			CHANNELS 3 Xrotation Yrotation Zrotation
			JOINT LeftLeg
			{
				OFFSET 0.000000 -0.000003 19.839996
				CHANNELS 3 Xrotation Yrotation Zrotation
				JOINT LeftLegRoll
				{
					OFFSET 0.000000 -0.000003 20.089005
					CHANNELS 3 Xrotation Yrotation Zrotation
					JOINT LeftFoot
					{
						OFFSET 0.000000 -0.000003 16.383499
						CHANNELS 3 Xrotation Yrotation Zrotation
						JOINT LeftToeBase
						{
							OFFSET 0.000000 -0.000002 13.849594
							CHANNELS 3 Xrotation Yrotation Zrotation
							End Site
							{
								OFFSET -0.026310 0.773116 6.707275
							}
						}
					}
				}
			}
		}
	}
}
MOTION
Frames: 8
Frame Time: 0.041667
53.539898 -3.783322 84.048515 -5.796235 -1.899108 0.531627 0.204764 0.502761 0.082101 4.411780 1.027367 0.169519 6.056961 1.029233 0.157227 2.590439 3.057199 -0.569588 10.796349 -9.168248 0.435892 -9.223527 -65.751793 -11.254186 -36.654101 -124.239024 -51.272365 0.000002 -0.000003 -0.000002 -0.026643 3.640511 -1.990857 -0.000001 0.000001 -3.011609 -5.000162 -7.999931 0.000030 -13.720589 56.811587 16.106235 -28.831810 132.759562 50.804682 0.000002 0.000001 0.000000 -0.026939 -3.639490 1.990899 -0.000003 -0.000015 3.011611 -5.000172 7.999938 -0.000019 -2.044981 -175.625774 5.095281 179.999991 -0.000005 -1.083004 165.859259 -3.064429 -0.854630 0.000000 0.000000 0.234672 71.261986 6.854751 2.087503 25.456878 -7.344456 -0.000012 1.595278 -177.508967 0.944959 -0.000005 -0.000004 -1.095560 -10.235617 3.087774 0.602434 0.000002 -0.000002 -0.124174 68.753791 -6.872612 -2.186938 25.456928 7.343563 0.000003 
53.526398 -3.799691 84.054901 -5.743421 -1.886111 0.534669 0.206241 0.499795 0.082098 4.414729 1.019925 0.169563 6.059918 1.021799 0.157257 2.497368 3.083974 -0.580099 10.795885 -9.173014 0.418033 -9.166966 -65.686032 -11.185597 -36.603612 -124.305563 -51.283502 0.000002 -0.000004 -0.000002 -0.026644 3.640511 -1.990857 -0.000001 0.000002 -3.011606 -5.000163 -7.999929 0.000030 -13.744114 56.833051 16.135224 -28.864239 132.748073 50.820846 0.000000 -0.000000 -0.000001 -0.026940 -3.639490 1.990902 -0.000002 -0.000016 3.011607 -5.000174 7.999939 -0.000017 -2.111314 -175.653942 5.062770 179.999991 -0.000005 -1.083003 165.847143 -3.049719 -0.853623 0.000000 0.000000 0.234961 71.259316 6.854745 2.087566 25.456878 -7.344455 -0.000012 1.522015 -177.521876 0.942068 -0.000005 -0.000004 -1.094960 -10.257933 3.085893 0.603639 0.000001 -0.000002 -0.124116 68.752841 -6.872624 -2.187000 25.456919 7.343562 0.000004 
53.518898 -3.788821 84.055389 -5.691651 -1.873425 0.537287 0.207672 0.496831 0.082095 4.417599 1.012424 0.169633 6.062782 1.014296 0.157306 2.404757 3.111393 -0.590264 10.796734 -9.177538 0.400384 -9.109463 -65.618611 -11.115817 -36.551409 -124.372568 -51.294024 0.000001 -0.000003 -0.000001 -0.026645 3.640512 -1.990856 0.000000 0.000002 -3.011608 -5.000162 -7.999929 0.000033 -13.769566 56.855799 16.166586 -28.896413 132.736517 50.835729 0.000002 0.000000 0.000002 -0.026937 -3.639491 1.990901 -0.000004 -0.000015 3.011611 -5.000171 7.999939 -0.000018 -2.176718 -175.681112 5.031286 179.999991 -0.000005 -1.083004 165.834712 -3.035973 -0.852857 0.000000 0.000000 0.235250 71.256973 6.854737 2.087509 25.456878 -7.344456 -0.000011 1.450310 -177.534798 0.939170 -0.000005 -0.000004 -1.094390 -10.279750 3.084254 0.604824 0.000001 -0.000003 -0.124030 68.751475 -6.872645 -2.187086 25.456923 7.343563 0.000004 
53.518898 -3.770380 84.054710 -5.640605 -1.860971 0.539600 0.209083 0.493867 0.082091 4.420410 1.004893 0.169720 6.065589 1.006763 0.157368 2.312472 3.139276 -0.600159 10.798391 -9.181916 0.382871 -9.051402 -65.550002 -11.045312 -36.497813 -124.440159 -51.303764 0.000001 -0.000004 -0.000003 -0.026643 3.640511 -1.990858 0.000001 0.000002 -3.011609 -5.000162 -7.999929 0.000032 -13.796334 56.879312 16.199540 -28.929119 132.724113 50.850642 0.000002 -0.000000 -0.000001 -0.026941 -3.639490 1.990902 -0.000003 -0.000016 3.011610 -5.000173 7.999938 -0.000019 -2.241446 -175.708283 5.000564 179.999991 -0.000005 -1.083003 165.822076 -3.022241 -0.851101 0.000001 0.000000 0.235540 71.254746 6.854789 2.087353 25.456875 -7.344455 -0.000011 1.379717 -177.547708 0.936275 -0.000004 -0.000004 -1.093840 -10.301168 3.082776 0.605992 0.000002 -0.000003 -0.123925 68.749897 -6.872651 -2.187186 25.456923 7.343562 0.000004 
53.520195 -3.772904 84.052101 -5.589969 -1.848653 0.541731 0.210467 0.490904 0.082087 4.423190 0.997341 0.169817 6.068366 0.999211 0.157437 2.220373 3.167435 -0.609860 10.800546 -9.186195 0.365432 -8.993180 -65.480703 -10.974546 -36.443017 -124.508365 -51.312612 0.000002 -0.000004 -0.000002 -0.026643 3.640511 -1.990858 -0.000000 0.000003 -3.011605 -5.000164 -7.999929 0.000033 -13.823933 56.903440 16.233519 -28.962215 132.710821 50.865679 0.000001 0.000000 -0.000001 -0.026941 -3.639490 1.990900 -0.000002 -0.000015 3.011610 -5.000173 7.999939 -0.000018 -2.305819 -175.735440 4.970312 179.999991 -0.000005 -1.083003 165.809235 -3.008493 -0.850360 0.000000 0.000000 0.235831 71.252704 6.854778 2.087279 25.456880 -7.344457 -0.000011 1.309746 -177.560644 0.933399 -0.000005 -0.000004 -1.093300 -10.322386 3.081388 0.607151 0.000002 -0.000003 -0.123808 68.748122 -6.872680 -2.187202 25.456921 7.343563 0.000004 
53.513996 -3.757220 84.048508 -5.539446 -1.836360 0.543800 0.211851 0.487941 0.082083 4.425961 0.989781 0.169917 6.071133 0.991657 0.157508 2.128320 3.195698 -0.619446 10.802808 -9.190463 0.348019 -8.935168 -65.411260 -10.903989 -36.388301 -124.576558 -51.321649 0.000002 -0.000004 -0.000002 -0.026644 3.640511 -1.990857 -0.000001 0.000002 -3.011607 -5.000162 -7.999930 0.000033 -13.851750 56.927636 16.267762 -28.995485 132.697557 50.880757 0.000001 0.000000 -0.000002 -0.026939 -3.639491 1.990897 -0.000002 -0.000015 3.011609 -5.000173 7.999938 -0.000017 -2.370084 -175.761613 4.940175 179.999991 -0.000005 -1.083003 165.796476 -2.995714 -0.848840 0.000001 0.000001 0.236121 71.250778 6.854733 2.087290 25.456880 -7.344455 -0.000012 1.239932 -177.572569 0.930572 -0.000004 -0.000004 -1.092760 -10.343503 3.080030 0.608305 0.000002 -0.000002 -0.123688 68.746339 -6.872710 -2.187219 25.456924 7.343563 0.000003 
53.494198 -3.727431 84.046707 -5.488713 -1.824004 0.545927 0.213244 0.484978 0.082079 4.428742 0.982232 0.170015 6.073919 0.984108 0.157578 2.036174 3.223878 -0.628996 10.804873 -9.194767 0.330570 -8.877669 -65.342002 -10.834003 -36.333973 -124.644846 -51.330927 0.000002 -0.000003 0.000000 -0.026644 3.640511 -1.990857 -0.000002 0.000002 -3.011606 -5.000162 -7.999929 0.000034 -13.879189 56.951466 16.301531 -29.028236 132.685208 50.895339 0.000000 0.000000 -0.000000 -0.026943 -3.639489 1.990899 -0.000003 -0.000015 3.011609 -5.000172 7.999939 -0.000018 -2.434549 -175.788784 4.909955 179.999991 -0.000005 -1.083003 165.783636 -2.981969 -0.848070 0.000000 0.000000 0.236412 71.248647 6.854752 2.087222 25.456880 -7.344456 -0.000011 1.169808 -177.585492 0.927763 -0.000004 -0.000004 -1.092220 -10.364821 3.078620 0.609467 0.000001 -0.000002 -0.123574 68.744549 -6.872739 -2.187334 25.456921 7.343562 0.000005 
53.493896 -3.718105 84.046501 -5.437455 -1.811477 0.548234 0.214656 0.482014 0.082076 4.431572 0.974710 0.170100 6.076747 0.976588 0.157638 1.943781 3.251802 -0.638588 10.806324 -9.199196 0.313024 -8.821113 -65.273584 -10.765127 -36.281214 -124.712506 -51.341272 0.000002 -0.000003 -0.000001 -0.026645 3.640510 -1.990858 0.000000 0.000002 -3.011611 -5.000165 -7.999931 0.000030 -13.905756 56.974781 16.334244 -29.061010 132.672846 50.910543 0.000002 -0.000000 -0.000002 -0.026938 -3.639490 1.990896 -0.000002 -0.000015 3.011609 -5.000171 7.999938 -0.000016 -2.499478 -175.815981 4.879291 179.999991 -0.000005 -1.083004 165.771109 -2.968230 -0.846297 0.000000 0.000000 0.236701 71.246414 6.854774 2.087065 25.456877 -7.344457 -0.000012 1.098904 -177.598456 0.925010 -0.000005 -0.000004 -1.091670 -10.386338 3.077091 0.610634 0.000001 -0.000003 -0.123474 68.743081 -6.872751 -2.187327 25.456924 7.343562 0.000003 
